:SAMPLES-PER-SECOND 30
:FULLY-SPECIFIED
:DEGREES
56
root  62.5758 32.7499 -2.18847 2.79695 -87.5622 11.5471
RightUpLeg  -62.6387 -14.0812 9.86628
RightLeg  64.0411 -2.83059 -6.94363
RightFoot  -15.9702 -0.369089 -6.45507
RightToes  -1.33073e-015 0 -3.6325e-017
Spine  66.1564 -6.25709 12.0536
Spine1  5.93923 1.37656 -2.30447
HEad  -40.9754 -8.85718 0.208948
LeftShoulder1  5.38738 -19.2263 -16.9745
LeftArm  -72.7143 -76.6002 29.475
LeftForeArm  40.618 -3.6655 -4.27476
LeftHand  -0.244104 0.0205437 5.32207
RightShoulder  2.60711 12.9865 8.36499
RightArm  -41.1833 63.2162 0.306468
RightForeArm  11.0457 -3.8553 3.99747
RightHand  -3.67 10.232 -27.1056
LeftUpLeg  -68.1731 16.1762 -13.6095
LeftLeg  51.2302 1.37157 2.28201
LeftFoot  -2.26021 -0.590517 7.52417
LeftToes  -7.82198e-011 2.46994e-011 -7.94165e-012
57
root  62.1181 32.15 -2.15481 -3.59741 -87.5366 17.8436
RightUpLeg  -63.8317 -13.2834 9.03653
RightLeg  68.0471 -2.72511 -8.19775
RightFoot  -18.0701 -0.459368 -5.73136
RightToes  -1.33073e-015 0 -3.6325e-017
Spine  68.2531 -6.57261 11.8139
Spine1  5.76795 1.40823 -2.98476
HEad  -42.0992 -8.80493 0.458101
LeftShoulder1  4.63091 -18.6294 -13.9366
LeftArm  -85.1746 -77.8953 41.1992
LeftForeArm  41.4269 -3.12223 -4.05346
LeftHand  -0.244104 0.0205437 5.32207
RightShoulder  2.28633 12.7823 6.37154
RightArm  -46.4165 64.7014 -4.95505
RightForeArm  13.4538 -4.16234 3.46745
RightHand  -3.56471 10.1432 -26.508
LeftUpLeg  -69.833 15.6999 -13.2934
LeftLeg  55.7081 1.59653 3.02596
LeftFoot  -4.97992 -0.323785 6.41677
LeftToes  -7.82198e-011 2.46994e-011 -7.94165e-012
58
root  61.6498 31.5439 -2.09487 -12.3174 -87.6557 26.9185
RightUpLeg  -65.3516 -12.1279 8.12963
RightLeg  71.8494 -2.51809 -9.54947
RightFoot  -20.1355 -0.508038 -4.83736
RightToes  -1.33073e-015 0 -3.6325e-017
Spine  69.4641 -6.83544 11.6396
Spine1  6.214 1.49257 -3.89386
HEad  -43.2268 -8.73416 0.618737
LeftShoulder1  3.70517 -17.4677 -10.3611
LeftArm  -98.4153 -78.6018 53.1109
LeftForeArm  41.3928 -2.78431 -3.62755
LeftHand  -0.244104 0.0205437 5.32207
RightShoulder  1.77622 12.2458 3.2589
RightArm  -52.4646 65.7016 -9.73603
RightForeArm  15.3165 -4.5135 2.51607
RightHand  -3.45064 9.93748 -26.0293
LeftUpLeg  -71.841 15.4639 -13.674
LeftLeg  59.7214 1.67542 3.68139
LeftFoot  -6.68141 -0.24999 7.16582
LeftToes  -7.82198e-011 2.46994e-011 -7.94165e-012
59
root  61.1788 30.9484 -2.0356 -24.8167 -87.5289 39.787
RightUpLeg  -66.7247 -11.011 6.94495
RightLeg  75.4788 -2.17861 -10.9193
RightFoot  -22.3725 -0.512208 -3.73907
RightToes  -1.33073e-015 0 -3.6325e-017
Spine  70.4256 -7.06383 11.3755
Spine1  6.3641 1.40117 -4.67882
HEad  -43.9893 -8.63231 1.05015
LeftShoulder1  2.87722 -15.996 -7.1354
LeftArm  -110.635 -78.8865 64.2384
LeftForeArm  41.6355 -2.46975 -3.32092
LeftHand  -0.244104 0.0205437 5.32207
RightShoulder  1.2485 11.5228 -0.108808
RightArm  -58.0713 66.2117 -13.8085
RightForeArm  15.4186 -4.76803 1.60733
RightHand  -3.45253 9.84964 -26.1824
LeftUpLeg  -73.7567 15.1987 -14.3383
LeftLeg  63.6785 1.74133 4.49253
LeftFoot  -8.56769 -0.145294 8.0542
LeftToes  -7.82198e-011 2.46994e-011 -7.94165e-012
60
root  60.6933 30.3767 -1.99293 -38.429 -86.9068 53.6381
RightUpLeg  -67.8337 -10.1371 5.36432
RightLeg  78.983 -1.68199 -12.1771
RightFoot  -24.6422 -0.461329 -2.52439
RightToes  -1.33073e-015 0 -3.6325e-017
Spine  71.2571 -7.30706 11.0194
Spine1  6.42329 1.19744 -5.417
HEad  -44.7065 -8.62352 1.89173
LeftShoulder1  2.23409 -14.4985 -4.50807
LeftArm  -122.541 -78.842 75.3769
LeftForeArm  42.5683 -2.0939 -3.1704
LeftHand  -0.244104 0.0205437 5.32207
RightShoulder  0.809848 10.6601 -3.06064
RightArm  -63.3267 66.1572 -17.3883
RightForeArm  14.7069 -4.67349 0.689048
RightHand  -3.70256 10.4975 -26.8977
LeftUpLeg  -75.265 14.8278 -15.1524
LeftLeg  67.3712 1.64687 5.11113
LeftFoot  -10.8155 0.0287717 7.63459
LeftToes  -7.82198e-011 2.46994e-011 -7.94165e-012
